<?xml version="1.0" encoding="UTF-8" standalone="no"?>
<!-- Created with Inkscape (http://www.inkscape.org/) -->

<svg
   width="7.4083338mm"
   height="5.2916698mm"
   viewBox="0 0 7.4083338 5.2916698"
   version="1.1"
   id="svg5"
   inkscape:version="1.2.2 (b0a8486541, 2022-12-01)"
   sodipodi:docname="hamburger_white.svg"
   xmlns:inkscape="http://www.inkscape.org/namespaces/inkscape"
   xmlns:sodipodi="http://sodipodi.sourceforge.net/DTD/sodipodi-0.dtd"
   xmlns="http://www.w3.org/2000/svg"
   xmlns:svg="http://www.w3.org/2000/svg">
  <sodipodi:namedview
     id="namedview7"
     pagecolor="#ffffff"
     bordercolor="#666666"
     borderopacity="1.0"
     inkscape:showpageshadow="2"
     inkscape:pageopacity="0.0"
     inkscape:pagecheckerboard="0"
     inkscape:deskcolor="#d1d1d1"
     inkscape:document-units="mm"
     showgrid="false"
     inkscape:zoom="3.7522727"
     inkscape:cx="62.895215"
     inkscape:cy="-34.778922"
     inkscape:window-width="2560"
     inkscape:window-height="1378"
     inkscape:window-x="0"
     inkscape:window-y="0"
     inkscape:window-maximized="1"
     inkscape:current-layer="layer1" />
  <defs
     id="defs2" />
  <g
     inkscape:label="Layer 1"
     inkscape:groupmode="layer"
     id="layer1"
     transform="translate(-52.424038,-178.43109)">
    <path
       d="m 52.953205,179.48942 h 6.35 c 0.2921,0 0.529167,-0.23706 0.529167,-0.52916 0,-0.2921 -0.237067,-0.52917 -0.529167,-0.52917 h -6.35 c -0.2921,0 -0.529167,0.23707 -0.529167,0.52917 0,0.2921 0.237067,0.52916 0.529167,0.52916 z m 6.35,1.05834 h -6.35 c -0.2921,0 -0.529167,0.23706 -0.529167,0.52916 0,0.2921 0.237067,0.52917 0.529167,0.52917 h 6.35 c 0.2921,0 0.529167,-0.23707 0.529167,-0.52917 0,-0.2921 -0.237067,-0.52916 -0.529167,-0.52916 z m 0,2.11666 h -6.35 c -0.2921,0 -0.529167,0.23707 -0.529167,0.52917 0,0.2921 0.237067,0.52917 0.529167,0.52917 h 6.35 c 0.2921,0 0.529167,-0.23707 0.529167,-0.52917 0,-0.2921 -0.237067,-0.52917 -0.529167,-0.52917 z"
       id="path9"
       style="fill:#ffffff;stroke-width:0.264583" />
  </g>
</svg>
